<svg width="124" height="24" viewBox="0 0 124 24" fill="none" xmlns="http://www.w3.org/2000/svg">
<rect width="24" height="24" rx="4" fill="url(#paint0_linear_909_14)"/>
<path d="M11.1376 8.80469H12.6298V16.2812H11.1376V8.80469ZM8.14545 11.7969H15.6298V13.2891H8.14545V11.7969Z" fill="white"/>
<path d="M34.527 8.21094C34.527 9.22135 34.3994 10.1927 34.1442 11.125C33.889 12.0573 33.514 12.8906 33.0192 13.625C32.5244 14.3594 31.9333 14.9349 31.2458 15.3516L30.2926 14.2656C30.9437 13.8854 31.501 13.3776 31.9645 12.7422C32.4281 12.1016 32.777 11.3906 33.0114 10.6094C33.2458 9.82292 33.363 9.02344 33.363 8.21094V5.60156H34.527V8.21094ZM34.8005 8.11719C34.8005 8.91406 34.9072 9.6849 35.1208 10.4297C35.3395 11.1693 35.665 11.8359 36.0973 12.4297C36.5296 13.0234 37.0505 13.4844 37.6598 13.8125L36.777 14.9844C36.0895 14.5885 35.5088 14.0417 35.0348 13.3438C34.5661 12.6406 34.2145 11.8438 33.9801 10.9531C33.751 10.0625 33.6364 9.11719 33.6364 8.11719V5.60156H34.8005V8.11719ZM42.5348 18.3203H41.1051V4.32031H42.5348V18.3203ZM41.6208 11.1094H39.0036V9.89844H41.6208V11.1094ZM39.4255 17.6328H38.0036V4.58594H39.4255V17.6328ZM50.8233 10.6875C51.9535 10.6875 52.8701 10.6797 53.5733 10.6641C54.2816 10.6484 54.9483 10.6146 55.5733 10.5625C56.2035 10.5052 56.8441 10.4219 57.4951 10.3125L57.6436 11.4922C56.7009 11.6589 55.7582 11.7656 54.8154 11.8125C53.8727 11.8594 52.542 11.8828 50.8233 11.8828H49.667V10.6875H50.8233ZM56.4014 6.375H51.1592V11.2578H49.667V5.16406H56.4014V6.375ZM56.0029 9.07031H50.6826V7.89844H56.0029V9.07031ZM60.4717 12.6719H58.9951V4.33594H60.4717V12.6719ZM60.4717 18.1484H51.2764V13.3203H60.4717V18.1484ZM52.7373 16.9453H59.0186V14.5H52.7373V16.9453ZM71.2601 7.00781C71.2601 7.73698 71.1325 8.45312 70.8773 9.15625C70.6273 9.85938 70.2549 10.4922 69.7601 11.0547C69.2653 11.612 68.6742 12.0339 67.9867 12.3203L67.182 11.1719C67.7914 10.9062 68.3148 10.5469 68.7523 10.0938C69.1898 9.64062 69.5206 9.14844 69.7445 8.61719C69.9737 8.08073 70.0883 7.54427 70.0883 7.00781V5.19531H71.2601V7.00781ZM71.5101 7.00781C71.5101 7.52865 71.6195 8.03385 71.8383 8.52344C72.0622 9.01302 72.3851 9.45573 72.807 9.85156C73.2289 10.2474 73.7315 10.5573 74.3148 10.7812L73.5336 11.9141C72.8565 11.6484 72.2758 11.2682 71.7914 10.7734C71.3122 10.2734 70.9502 9.69792 70.7055 9.04688C70.4659 8.39583 70.3461 7.71615 70.3461 7.00781V5.19531H71.5101V7.00781ZM79.1742 12.9531H77.7601V4.33594H79.1742V12.9531ZM78.1976 9.20312H75.6664V7.98438H78.1976V9.20312ZM76.1351 12.5156H74.7523V4.59375H76.1351V12.5156ZM74.4945 13.2266C75.4633 13.2266 76.3044 13.3255 77.018 13.5234C77.7367 13.7214 78.2888 14.013 78.6742 14.3984C79.0596 14.7786 79.2523 15.2344 79.2523 15.7656C79.2523 16.2917 79.0596 16.7422 78.6742 17.1172C78.2888 17.4974 77.7367 17.7891 77.018 17.9922C76.3044 18.2005 75.4633 18.3047 74.4945 18.3047C73.5206 18.3047 72.6742 18.2005 71.9555 17.9922C71.2419 17.7891 70.695 17.4974 70.3148 17.1172C69.9346 16.7422 69.7445 16.2917 69.7445 15.7656C69.7445 15.2344 69.9346 14.7786 70.3148 14.3984C70.695 14.013 71.2419 13.7214 71.9555 13.5234C72.6742 13.3255 73.5206 13.2266 74.4945 13.2266ZM74.4945 14.3516C73.8226 14.3516 73.2393 14.4062 72.7445 14.5156C72.2497 14.6198 71.8721 14.7812 71.6117 15C71.3565 15.2135 71.2289 15.4688 71.2289 15.7656C71.2289 16.0625 71.3565 16.3151 71.6117 16.5234C71.8721 16.7318 72.2471 16.8906 72.7367 17C73.2263 17.1094 73.8122 17.1641 74.4945 17.1641C75.1716 17.1641 75.7549 17.1094 76.2445 17C76.7341 16.8906 77.1091 16.7318 77.3695 16.5234C77.6351 16.3151 77.768 16.0625 77.768 15.7656C77.768 15.4688 77.6351 15.2135 77.3695 15C77.1091 14.7812 76.7315 14.6198 76.2367 14.5156C75.7419 14.4062 75.1612 14.3516 74.4945 14.3516ZM86.088 6.49219C86.088 7.40365 85.9291 8.2526 85.6114 9.03906C85.2989 9.82031 84.8458 10.5026 84.252 11.0859C83.6583 11.6641 82.9525 12.1068 82.1348 12.4141L81.3301 11.2109C82.0645 10.9609 82.6999 10.599 83.2364 10.125C83.7728 9.65104 84.1817 9.10156 84.463 8.47656C84.7442 7.85156 84.8848 7.1901 84.8848 6.49219V5.10156H86.088V6.49219ZM86.3614 6.42188C86.3614 7.07292 86.4942 7.69271 86.7598 8.28125C87.0307 8.86979 87.4213 9.38542 87.9317 9.82812C88.4421 10.2656 89.0463 10.599 89.7442 10.8281L88.9239 11.9844C88.1426 11.6979 87.4708 11.2839 86.9083 10.7422C86.3458 10.2005 85.9109 9.5625 85.6036 8.82812C85.3015 8.08854 85.1505 7.28646 85.1505 6.42188V5.10156H86.3614V6.42188ZM93.0567 12.5859H91.5723V4.32031H93.0567V12.5859ZM88.3614 12.9844C89.3458 12.9844 90.1921 13.0885 90.9005 13.2969C91.614 13.5 92.1583 13.8047 92.5333 14.2109C92.9135 14.612 93.1036 15.0938 93.1036 15.6562C93.1036 16.2083 92.9135 16.6823 92.5333 17.0781C92.1583 17.4792 91.614 17.7839 90.9005 17.9922C90.1921 18.2005 89.3458 18.3047 88.3614 18.3047C87.3874 18.3047 86.5463 18.2005 85.838 17.9922C85.1296 17.7839 84.5853 17.4792 84.2051 17.0781C83.8249 16.6823 83.6348 16.2083 83.6348 15.6562C83.6348 15.0938 83.8249 14.612 84.2051 14.2109C84.5853 13.8047 85.1296 13.5 85.838 13.2969C86.5463 13.0885 87.3874 12.9844 88.3614 12.9844ZM88.3614 14.1406C87.6895 14.1406 87.1062 14.2005 86.6114 14.3203C86.1218 14.4349 85.7468 14.6068 85.4864 14.8359C85.2312 15.0599 85.1036 15.3333 85.1036 15.6562C85.1036 15.9583 85.2312 16.2214 85.4864 16.4453C85.7468 16.6641 86.1218 16.8333 86.6114 16.9531C87.1062 17.0729 87.6895 17.1328 88.3614 17.1328C89.0489 17.1328 89.6348 17.0729 90.1192 16.9531C90.6088 16.8333 90.9812 16.6641 91.2364 16.4453C91.4968 16.2214 91.627 15.9583 91.627 15.6562C91.627 15.3333 91.4968 15.0599 91.2364 14.8359C90.9812 14.6068 90.6088 14.4349 90.1192 14.3203C89.6348 14.2005 89.0489 14.1406 88.3614 14.1406ZM91.838 8.39844H88.6192V7.17969H91.838V8.39844ZM106.439 18.3203H104.97V4.32031H106.439V18.3203ZM108.697 11.2266H106.103V10H108.697V11.2266ZM103.752 7.72656H95.4548V6.51562H103.752V7.72656ZM99.6658 8.76562C100.332 8.76562 100.929 8.90365 101.455 9.17969C101.986 9.45573 102.4 9.84115 102.697 10.3359C102.999 10.8307 103.15 11.3906 103.15 12.0156C103.15 12.6458 102.999 13.2083 102.697 13.7031C102.4 14.1979 101.986 14.5833 101.455 14.8594C100.929 15.1354 100.332 15.2734 99.6658 15.2734C98.9939 15.2734 98.3949 15.1354 97.8689 14.8594C97.3428 14.5833 96.9288 14.1979 96.6267 13.7031C96.3298 13.2083 96.1814 12.6458 96.1814 12.0156C96.1814 11.3906 96.3298 10.8307 96.6267 10.3359C96.9288 9.84115 97.3428 9.45573 97.8689 9.17969C98.3949 8.90365 98.9939 8.76562 99.6658 8.76562ZM99.6658 9.99219C99.2699 9.99219 98.9158 10.0781 98.6033 10.25C98.2908 10.4167 98.0434 10.6536 97.8611 10.9609C97.684 11.2682 97.5954 11.6198 97.5954 12.0156C97.5954 12.4167 97.684 12.7682 97.8611 13.0703C98.0434 13.3724 98.2908 13.6094 98.6033 13.7812C98.9158 13.9479 99.2699 14.0312 99.6658 14.0312C100.062 14.0312 100.416 13.9479 100.728 13.7812C101.041 13.6094 101.286 13.3724 101.463 13.0703C101.64 12.7682 101.728 12.4167 101.728 12.0156C101.728 11.6198 101.64 11.2682 101.463 10.9609C101.286 10.6536 101.041 10.4167 100.728 10.25C100.416 10.0781 100.062 9.99219 99.6658 9.99219ZM100.392 7.03125H98.9158V4.50781H100.392V7.03125ZM121.322 18.3203H119.822V4.32031H121.322V18.3203ZM117.165 5.82812C117.165 7.25521 116.944 8.57552 116.501 9.78906C116.064 10.9974 115.361 12.112 114.392 13.1328C113.423 14.1484 112.163 15.0286 110.611 15.7734L109.814 14.5703C111.163 13.9349 112.27 13.1953 113.134 12.3516C114.004 11.5078 114.647 10.5651 115.064 9.52344C115.481 8.48177 115.689 7.33073 115.689 6.07031V5.82812H117.165ZM116.33 7.01562H110.494V5.82812H116.33V7.01562Z" fill="black"/>
<defs>
<linearGradient id="paint0_linear_909_14" x1="12" y1="0" x2="12" y2="24" gradientUnits="userSpaceOnUse">
<stop stop-color="#5772FE"/>
<stop offset="1" stop-color="#3B95FF"/>
</linearGradient>
</defs>
</svg>
