<svg width="102" height="26" viewBox="0 0 102 26" fill="none" xmlns="http://www.w3.org/2000/svg">
<path d="M14.6207 22.75H7.04167C5.84458 22.75 4.875 21.5031 4.875 19.9648V6.03417C4.875 4.49692 5.84458 3.25 7.04167 3.25H14.625M17.3333 16.7917L21.125 13L17.3333 9.20833M10.2917 12.9957H21.125" stroke="black" stroke-opacity="0.86" stroke-width="2" stroke-linecap="round" stroke-linejoin="round"/>
<path d="M46.6602 18.5605H30.6445V17.0273H46.6602V18.5605ZM39.5215 17.6816H37.7051V13.4141H39.5215V17.6816ZM44.6973 9.85938H34.4434V13.2188H32.5977V8.375H42.8711V5.91406H32.5684V4.40039H44.6973V9.85938ZM45.1074 13.9414H32.5977V12.418H45.1074V13.9414ZM60.9473 6.45117H49.6387V4.9375H60.9473V6.45117ZM63.8867 18.1699H47.9297V16.6465H63.8867V18.1699ZM61.7969 6.80273C61.7969 7.83138 61.7871 8.72005 61.7676 9.46875C61.748 10.2109 61.6927 11.0736 61.6016 12.0566C61.5104 13.0397 61.3607 14.1139 61.1523 15.2793L59.2676 15.1035C59.4889 14.0098 59.6484 12.9811 59.7461 12.0176C59.8503 11.054 59.9121 10.1947 59.9316 9.43945C59.9512 8.68424 59.9609 7.80534 59.9609 6.80273V4.9375H61.7969V6.80273ZM69.9121 4.46875C70.7845 4.46875 71.556 4.72266 72.2266 5.23047C72.9036 5.73828 73.4342 6.45443 73.8184 7.37891C74.209 8.30339 74.4043 9.38086 74.4043 10.6113C74.4043 11.8483 74.209 12.929 73.8184 13.8535C73.4342 14.778 72.9036 15.4941 72.2266 16.002C71.5495 16.5033 70.778 16.7539 69.9121 16.7539C69.0462 16.7539 68.2715 16.5033 67.5879 16.002C66.9108 15.4941 66.3802 14.778 65.9961 13.8535C65.6185 12.929 65.4297 11.8483 65.4297 10.6113C65.4297 9.38086 65.6185 8.30339 65.9961 7.37891C66.3802 6.45443 66.9108 5.73828 67.5879 5.23047C68.2715 4.72266 69.0462 4.46875 69.9121 4.46875ZM69.9121 6.12891C69.3783 6.12891 68.9062 6.3112 68.4961 6.67578C68.0859 7.04036 67.7669 7.5612 67.5391 8.23828C67.3112 8.90885 67.1973 9.69987 67.1973 10.6113C67.1973 11.5163 67.3112 12.3073 67.5391 12.9844C67.7669 13.6615 68.0892 14.1823 68.5059 14.5469C68.9225 14.9049 69.3913 15.084 69.9121 15.084C70.446 15.084 70.918 14.9049 71.3281 14.5469C71.7383 14.1823 72.054 13.6615 72.2754 12.9844C72.5033 12.3073 72.6172 11.5163 72.6172 10.6113C72.6172 9.69987 72.5033 8.90885 72.2754 8.23828C72.054 7.5612 71.7383 7.04036 71.3281 6.67578C70.918 6.3112 70.446 6.12891 69.9121 6.12891ZM78.8477 20.6504H77.002V3.15039H78.8477V20.6504ZM81.6699 11.5879H78.4277V10.0059H81.6699V11.5879ZM98.4961 12.6035H82.5V11.041H98.4961V12.6035ZM91.3574 14.4297H89.5312V11.7148H91.3574V14.4297ZM91.0645 15.6699C91.0645 16.5228 90.7715 17.2975 90.1855 17.9941C89.5996 18.6908 88.7891 19.2604 87.7539 19.7031C86.7253 20.1523 85.5501 20.4421 84.2285 20.5723L83.6133 19.166C84.7331 19.0618 85.7357 18.8438 86.6211 18.5117C87.513 18.1732 88.2129 17.7598 88.7207 17.2715C89.2285 16.7767 89.4824 16.2428 89.4824 15.6699V15.1816H91.0645V15.6699ZM91.377 15.6699C91.377 16.2493 91.6276 16.7865 92.1289 17.2812C92.6367 17.776 93.3366 18.1895 94.2285 18.5215C95.1204 18.847 96.1328 19.0618 97.2656 19.166L96.6797 20.5723C95.3581 20.4355 94.1797 20.1491 93.1445 19.7129C92.1094 19.2767 91.2956 18.7135 90.7031 18.0234C90.1107 17.3268 89.8145 16.5423 89.8145 15.6699V15.1816H91.377V15.6699ZM90.4785 3.42383C91.7676 3.42383 92.8809 3.55078 93.8184 3.80469C94.7559 4.05208 95.472 4.41667 95.9668 4.89844C96.4681 5.3737 96.7188 5.95638 96.7188 6.64648C96.7188 7.31706 96.4681 7.89648 95.9668 8.38477C95.472 8.87305 94.7526 9.24414 93.8086 9.49805C92.8711 9.74544 91.7611 9.86914 90.4785 9.86914C89.196 9.86914 88.0827 9.74544 87.1387 9.49805C86.2012 9.24414 85.4785 8.87305 84.9707 8.38477C84.4629 7.89648 84.209 7.31706 84.209 6.64648C84.209 5.95638 84.4629 5.3737 84.9707 4.89844C85.4785 4.41667 86.2012 4.05208 87.1387 3.80469C88.0827 3.55078 89.196 3.42383 90.4785 3.42383ZM90.4785 4.82031C89.5736 4.80729 88.7923 4.87565 88.1348 5.02539C87.4837 5.16862 86.9857 5.37695 86.6406 5.65039C86.3021 5.92383 86.1328 6.25586 86.1328 6.64648C86.1328 7.01758 86.3021 7.33984 86.6406 7.61328C86.9857 7.88672 87.4837 8.09505 88.1348 8.23828C88.7923 8.375 89.5736 8.44336 90.4785 8.44336C91.377 8.44336 92.1517 8.375 92.8027 8.23828C93.4538 8.09505 93.9518 7.88672 94.2969 7.61328C94.6419 7.33984 94.8145 7.01758 94.8145 6.64648C94.8145 6.25586 94.6419 5.92383 94.2969 5.65039C93.9518 5.37695 93.4538 5.16862 92.8027 5.02539C92.1517 4.87565 91.377 4.80729 90.4785 4.82031Z" fill="black" fill-opacity="0.86"/>
</svg>
