<svg width="28" height="28" viewBox="0 0 28 28" fill="none" xmlns="http://www.w3.org/2000/svg">
<path d="M11.6667 4.66672C9.81015 4.66672 8.02968 5.40421 6.71692 6.71697C5.40417 8.02972 4.66667 9.8102 4.66667 11.6667C4.66667 13.5232 5.40417 15.3037 6.71692 16.6165C8.02968 17.9292 9.81015 18.6667 11.6667 18.6667C13.5232 18.6667 15.3037 17.9292 16.6164 16.6165C17.9292 15.3037 18.6667 13.5232 18.6667 11.6667C18.6667 9.8102 17.9292 8.02972 16.6164 6.71697C15.3037 5.40421 13.5232 4.66672 11.6667 4.66672ZM2.33334 11.6667C2.33355 10.1814 2.68826 8.71755 3.36798 7.39688C4.04771 6.07621 5.03282 4.93683 6.24144 4.07345C7.45007 3.21006 8.8473 2.6476 10.317 2.43282C11.7867 2.21803 13.2865 2.35712 14.6916 2.83852C16.0968 3.31992 17.3668 4.12974 18.396 5.20066C19.4252 6.27158 20.184 7.57269 20.6093 8.99584C21.0345 10.419 21.114 11.9231 20.8411 13.3831C20.5681 14.8432 19.9507 16.217 19.04 17.3904L25.3248 23.6752C25.5374 23.8952 25.6549 24.19 25.6523 24.4958C25.6496 24.8017 25.5269 25.0944 25.3106 25.3107C25.0943 25.527 24.8017 25.6497 24.4958 25.6523C24.1899 25.655 23.8952 25.5374 23.6752 25.3249L17.3903 19.04C16.0107 20.1112 14.3582 20.7737 12.6207 20.9522C10.8833 21.1307 9.13056 20.8182 7.56192 20.05C5.99329 19.2819 4.67167 18.089 3.74736 16.607C2.82305 15.125 2.33314 13.4133 2.33334 11.6667Z" fill="#777C89"/>
</svg>
