<svg width="1440" height="100" viewBox="0 0 1440 100" fill="none" xmlns="http://www.w3.org/2000/svg">
<path d="M0 0H1440V100H0V0Z" fill="white"/>
<rect width="63" height="31.8172" transform="translate(41 34)" fill="white"/>
<path d="M100.511 39.3928H101.494C103.429 39.3928 104 40.8837 104 42.1526C104 43.4532 103.397 44.9124 101.494 44.9124H100.511V50.4637H94.1661V37.1405C94.1661 35.0785 95.6571 34 97.3384 34C99.0196 34 100.511 35.0785 100.511 37.1405V39.3928ZM89.8202 49.6707H77.0362C74.3399 49.6707 73.4834 48.6239 73.4834 46.1813V38.4094C73.4834 35.9668 74.3399 34.9517 77.0362 34.9517H88.4562C90.2961 34.9517 90.8353 36.2205 90.8353 37.3943C90.8353 38.568 90.2643 39.8686 88.4562 39.8686H80.1767C79.7326 39.8686 79.5423 40.0589 79.5423 40.4713V44.2145C79.5423 44.6269 79.7326 44.8172 80.1767 44.8172H89.8202C91.6601 44.8172 92.1359 46.1178 92.1359 47.2598C92.1359 48.4653 91.6284 49.6707 89.8202 49.6707ZM79.1616 51.574H96.2598C100.003 51.574 100.701 52.716 100.701 56.2372V63.787H79.1616C75.3232 63.787 74.6254 62.645 74.6254 59.0287V56.3323C74.6254 52.716 75.3232 51.574 79.1616 51.574ZM81.6042 59.3776H94.4517V56.713C94.4517 56.0786 94.293 55.9199 93.722 55.9199H81.6042C81.0332 55.9199 80.8746 56.0786 80.8746 56.713V58.5846C80.8746 59.2825 81.0332 59.3776 81.6042 59.3776Z" fill="#02C551"/>
<path d="M74.4034 53.1284C74.4034 52.2524 75.1135 51.5423 75.9895 51.5423H99.4638C100.34 51.5423 101.05 52.2524 101.05 53.1284V63.4352C101.05 63.7343 100.9 64.0136 100.652 64.1795C100.6 64.2138 100.545 64.2427 100.488 64.2657L99.781 64.5483L97.7191 65.3414L97.216 65.4786C96.7614 65.6026 96.3854 65.1126 96.6228 64.7055C96.8276 64.3546 96.5744 63.9139 96.1682 63.9139H75.9895C75.1135 63.9139 74.4034 63.2038 74.4034 62.3278V53.1284Z" fill="#02C551"/>
<path d="M81.065 54.8731H94.3882" stroke="white" stroke-width="1.26888" stroke-linecap="round"/>
<path d="M81.065 57.7281H94.3882" stroke="white" stroke-width="1.26888" stroke-linecap="round"/>
<path d="M81.065 60.5831H90.2644" stroke="white" stroke-width="1.26888" stroke-linecap="round"/>
<path d="M68.7885 39.3928H69.7719C71.707 39.3928 72.278 40.8837 72.278 42.1526C72.278 43.4532 71.6752 44.9124 69.7719 44.9124H68.7885V50.3051H62.4441V37.1405C62.4441 35.0785 63.9351 34 65.6163 34C67.2976 34 68.7885 35.0785 68.7885 37.1405V39.3928ZM51.7538 46.3082C49.9139 48.8459 46.9637 50.3686 43.9184 50.3686C42.364 50.3686 41 49.4486 41 47.8308C41 46.5619 41.7296 45.7054 42.9985 45.5151C45.9804 45.1027 47.5347 43.1677 47.5347 40.6299V39.9955H43.5378C42.0468 39.9955 41.2221 38.6631 41.2221 37.5211C41.2221 36.3792 41.9199 35.0151 43.5378 35.0151H58.0665C59.6843 35.0151 60.3822 36.3792 60.3822 37.5211C60.3822 38.6631 59.5574 39.9955 58.0665 39.9955H53.5302V40.6299C53.5302 41.1057 53.4985 41.5499 53.435 41.994C58.2568 42.0574 60.6994 44.7221 60.5725 50.1465H54.6405C54.8625 47.9577 53.6888 46.2447 51.7538 46.3082ZM65.8384 51.2251C67.6783 51.2251 68.9789 52.145 68.9789 54.207V63.787H47.3761C43.8867 63.787 42.935 62.5499 42.935 59.3459V54.207C42.935 52.1133 44.2991 51.2251 46.139 51.2251C47.852 51.2251 49.0891 52.0181 49.2477 53.7628H62.6662C62.8248 51.9864 64.1254 51.2251 65.8384 51.2251ZM50.0725 59.6631H62.6344V57.6964H49.2795V58.9335C49.2795 59.568 49.4381 59.6631 50.0725 59.6631Z" fill="#02C551"/>
<path d="M1318.8 54.9102V56.4727H1302.79V54.9102H1318.8ZM1317.34 42.8398V44.3633H1314.66V50.2031H1317.28V51.6875H1304.2V50.2031H1306.81V44.3633H1304.16V42.8398H1317.34ZM1308.65 50.2031H1312.85V44.3633H1308.65V50.2031ZM1336.09 55.0078V56.5703H1320.07V55.0078H1327.12V51.9414H1322.03V46.375H1332.3V43.9141H1321.99V42.3906H1334.14V47.8594H1323.86V50.418H1334.55V51.9414H1328.96V55.0078H1336.09ZM1351.91 41.1602V50.2031H1350.04V41.1602H1351.91ZM1351.91 51.0039V55.3398H1342.16V57H1352.52V58.4844H1340.35V53.9922H1350.07V52.4688H1340.29V51.0039H1351.91ZM1347.63 42.3125V43.7773H1345.95V47.918C1346.8 47.8594 1347.64 47.7812 1348.43 47.6836L1348.51 49.0312C1345.02 49.5586 1340.93 49.6758 1337.87 49.6758L1337.65 48.1914L1339.78 48.1719V43.7773H1338.12V42.3125H1347.63ZM1341.56 48.1328C1342.42 48.1035 1343.3 48.0742 1344.18 48.0156V43.7773H1341.56V48.1328Z" fill="#02C551"/>
<path d="M1191.57 42.6445V44.1289H1195.38V41.1797H1197.23V53.9336H1195.38V49.4023H1191.57V50.9258H1183.45V42.6445H1191.57ZM1185.28 44.1484V49.4609H1189.75V44.1484H1185.28ZM1197.62 56.7852V58.2891H1185.81V52.7617H1187.68V56.7852H1197.62ZM1191.57 47.8789H1195.38V45.6523H1191.57V47.8789ZM1214.5 41.1602V50.6914H1212.66V46.8242H1209.38V45.3008H1212.66V41.1602H1214.5ZM1204.95 51.4727V53.4844H1212.66V51.4727H1214.5V58.4453H1203.11V51.4727H1204.95ZM1204.95 56.9414H1212.66V54.9297H1204.95V56.9414ZM1206.2 43.8945C1206.2 46.0625 1207.78 48.25 1210.42 49.1484L1209.46 50.5938C1207.49 49.9004 1206.04 48.5039 1205.28 46.7656C1204.51 48.709 1202.99 50.252 1200.91 50.9844L1199.95 49.5195C1202.64 48.582 1204.3 46.2773 1204.3 43.875V43.6406H1200.52V42.1367H1209.95V43.6406H1206.2V43.8945ZM1232.23 41.1602V58.6602H1230.46V49.6172H1228.19V57.7617H1226.49V41.5117H1228.19V48.0938H1230.46V41.1602H1232.23ZM1224.36 43.2695V44.7734H1219.66V52.8789C1221.8 52.8594 1223.43 52.7617 1225.3 52.4102L1225.44 53.9336C1223.33 54.3633 1221.53 54.4414 1218.97 54.4609H1217.8V43.2695H1224.36ZM1248.99 41.1602V58.6992H1247.14V41.1602H1248.99ZM1237.33 42.625V47.1172H1242.04V42.625H1243.88V54.5H1235.48V42.625H1237.33ZM1237.33 52.9766H1242.04V48.582H1237.33V52.9766Z" fill="#02C551"/>
<path d="M1068.68 43.9531C1068.68 46.2578 1070.28 48.3867 1072.9 49.2461L1071.9 50.7109C1069.99 50.0371 1068.55 48.6699 1067.8 46.9414C1067.03 48.9043 1065.54 50.4375 1063.5 51.1992L1062.51 49.7148C1065.24 48.7383 1066.82 46.4141 1066.84 43.7969V42.0781H1068.68V43.9531ZM1076.39 41.1602V45.5547H1078.93V47.1172H1076.39V51.7266H1074.54V41.1602H1076.39ZM1070.75 52.1367C1074.34 52.1367 1076.55 53.3281 1076.55 55.3789C1076.55 57.4492 1074.34 58.6406 1070.75 58.6211C1067.12 58.6406 1064.87 57.4492 1064.87 55.3789C1064.87 53.3281 1067.12 52.1367 1070.75 52.1367ZM1070.75 53.6016C1068.21 53.6016 1066.71 54.2656 1066.73 55.3789C1066.71 56.5312 1068.21 57.1562 1070.75 57.1758C1073.27 57.1562 1074.73 56.5312 1074.73 55.3789C1074.73 54.2656 1073.27 53.6016 1070.75 53.6016ZM1093.68 41.1602V45.3203H1096.22V46.8633H1093.68V51.043H1091.82V41.1602H1093.68ZM1088.48 42.3125V43.8164H1082.55V48.6406C1085.96 48.6309 1087.88 48.5039 1090.07 48.0742L1090.28 49.5586C1087.92 50.0664 1085.85 50.1445 1082.1 50.1445H1080.71V42.3125H1088.48ZM1093.68 51.9023V58.4258H1082.51V51.9023H1093.68ZM1084.32 53.3867V56.9414H1091.84V53.3867H1084.32ZM1110.85 41.1602V48.25H1113.66V49.793H1110.85V58.6602H1109.01V41.1602H1110.85ZM1107.49 43.8945V45.418H1097.12V43.8945H1101.43V41.3945H1103.29V43.8945H1107.49ZM1102.37 46.707C1104.87 46.707 1106.71 48.3867 1106.73 50.7695C1106.71 53.1719 1104.87 54.832 1102.37 54.8516C1099.85 54.832 1098.02 53.1719 1098.02 50.7695C1098.02 48.3867 1099.85 46.707 1102.37 46.707ZM1102.37 48.2305C1100.89 48.2305 1099.77 49.2656 1099.79 50.7695C1099.77 52.293 1100.89 53.3086 1102.37 53.2891C1103.86 53.3086 1104.95 52.293 1104.95 50.7695C1104.95 49.2656 1103.86 48.2305 1102.37 48.2305ZM1129.05 41.1602V58.6602H1127.18V41.1602H1129.05ZM1123.84 43.0352C1123.84 48.1523 1121.65 52.6055 1115.65 55.4766L1114.68 53.9727C1119.33 51.7559 1121.6 48.6016 1121.96 44.5195H1115.52V43.0352H1123.84Z" fill="#02C551"/>
</svg>
