<svg width="36" height="36" viewBox="0 0 36 36" fill="none" xmlns="http://www.w3.org/2000/svg">
<path d="M14.3996 12.96H15.8396V24.48H14.3996V12.96ZM17.2796 12.96H18.7196V24.48H17.2796V12.96ZM20.1596 12.96H21.5996V24.48H20.1596V12.96ZM8.63965 8.64001H27.3596V10.08H8.63965V8.64001ZM21.5996 8.64001H20.1596V7.92001C20.1596 7.48801 19.8716 7.20001 19.4396 7.20001H16.5596C16.1276 7.20001 15.8396 7.48801 15.8396 7.92001V8.64001H14.3996V7.92001C14.3996 6.69601 15.3356 5.76001 16.5596 5.76001H19.4396C20.6636 5.76001 21.5996 6.69601 21.5996 7.92001V8.64001Z" fill="#777C89"/>
<path d="M22.3201 28.8H13.6801C12.5281 28.8 11.5201 27.864 11.3761 26.712L10.0801 9.43196L11.5201 9.28796L12.8161 26.568C12.8161 27 13.2481 27.36 13.6801 27.36H22.3201C22.7521 27.36 23.1121 27 23.1841 26.568L24.4801 9.28796L25.9201 9.43196L24.6241 26.712C24.4801 27.864 23.4721 28.8 22.3201 28.8Z" fill="#777C89"/>
</svg>
