<svg width="28" height="18" viewBox="0 0 28 18" fill="none" xmlns="http://www.w3.org/2000/svg">
<path d="M19.223 8.94219C21.616 8.94219 23.566 6.8971 23.566 4.40873C23.566 1.94867 21.626 0 19.223 0C16.84 0 14.8795 1.97745 14.8795 4.42792C14.8895 6.90669 16.84 8.94219 19.223 8.94219ZM7.641 9.15423C9.712 9.15423 11.411 7.36963 11.411 5.18014C11.411 3.03862 9.732 1.31207 7.641 1.31207C5.57 1.31207 3.861 3.06788 3.871 5.19933C3.881 7.37971 5.57 9.15423 7.641 9.15423ZM19.223 7.48573C17.755 7.48573 16.498 6.13528 16.498 4.42792C16.498 2.74886 17.735 1.45694 19.223 1.45694C20.721 1.45694 21.9475 2.73015 21.9475 4.40825C21.9475 6.1161 20.711 7.48573 19.223 7.48573ZM7.641 7.71696C6.4145 7.71696 5.369 6.58863 5.369 5.19933C5.369 3.83929 6.404 2.74934 7.641 2.74934C8.9075 2.74934 9.923 3.8201 9.923 5.18014C9.923 6.58863 8.8775 7.71696 7.641 7.71696ZM2.051 18H9.9435C9.4605 17.7395 9.0885 17.1605 9.159 16.5723H1.8C1.599 16.5723 1.4985 16.4956 1.4985 16.3118C1.4985 13.9199 4.3435 11.6819 7.6315 11.6819C8.898 11.6819 10.034 11.9712 11.0095 12.521C11.3331 12.1279 11.716 11.7834 12.1455 11.4987C10.8485 10.6783 9.2905 10.2543 7.6315 10.2543C3.4185 10.2543 0 13.1864 0 16.3987C0 17.4694 0.6835 18 2.051 18ZM12.909 18H25.537C27.2055 18 28 17.5179 28 16.4567C28 13.9295 24.672 10.273 19.223 10.273C13.7635 10.273 10.436 13.9295 10.436 16.4567C10.436 17.5179 11.23 18 12.909 18ZM12.4265 16.5435C12.165 16.5435 12.0545 16.4764 12.0545 16.2734C12.0545 14.6913 14.608 11.7304 19.223 11.7304C23.828 11.7304 26.381 14.6913 26.381 16.2734C26.381 16.4759 26.281 16.5435 26.019 16.5435H12.4265Z" fill="#5F79FF"/>
</svg>
